<svg width="32" height="38" viewBox="0 0 32 38" fill="none" xmlns="http://www.w3.org/2000/svg">
<path fill-rule="evenodd" clip-rule="evenodd" d="M0.917236 30.864L3.11133 27.8482C3.91005 26.7503 5.54717 26.7503 6.34589 27.8482L7.77864 29.8175L12.9151 22.2028C13.2261 21.7418 13.585 21.3412 13.9795 21.0007C14.5075 21.3462 15.1343 21.6224 15.8282 21.8077C15.8954 21.863 15.9653 21.9205 16.0377 21.9798L16.0381 21.9802C17.7388 23.3754 20.7222 25.8231 18.5019 27.0049C18.107 27.2151 17.6081 27.4653 17.0395 27.7505C13.5403 29.5058 7.39928 32.5862 6.59066 35.814C4.42643 34.4988 2.50713 32.8206 0.917236 30.864ZM25.1014 37.8287C21.3975 35.9606 17.2162 34.3919 15.5019 34.0106C11.4709 33.1141 18.2724 29.8085 21.8903 28.0501L21.8905 28.05C22.3114 27.8454 22.6892 27.6618 23.0019 27.5053C25.0285 26.4912 20.6663 23.6502 17.6222 22.0676C17.7105 22.0704 17.7994 22.0718 17.8888 22.0718C19.4068 22.0718 20.7848 21.6639 21.7986 21.0004C22.1933 21.3409 22.5524 21.7417 22.8634 22.2028L31.2179 34.5882C29.3813 35.9706 27.3212 37.0721 25.1014 37.8287ZM17.9215 11.4474C15.4233 11.4474 13.3105 13.0972 12.613 15.3667L10.8367 13.1692C12.1991 10.6548 14.8609 8.94737 17.9215 8.94737C21.0141 8.94737 23.6995 10.6907 25.0486 13.2482L23.2586 15.4627C22.5919 13.1439 20.4549 11.4474 17.9215 11.4474ZM28.0142 9.57925L26.3753 11.6069C24.5942 8.82079 21.4736 6.97369 17.9215 6.97369C14.4006 6.97369 11.3036 8.78855 9.51492 11.5338L7.87969 9.51076C10.1638 6.45316 13.8115 4.47369 17.9215 4.47369C22.0622 4.47369 25.7336 6.48275 28.0142 9.57925ZM30.8957 6.01436L29.2909 7.99974C26.6349 4.64917 22.5292 2.5 17.9215 2.5C13.3443 2.5 9.26233 4.62092 6.60491 7.93363L5.0019 5.95041C8.11984 2.30822 12.7511 0 17.9215 0C23.1221 0 27.7773 2.33526 30.8957 6.01436ZM18.0019 20C19.6588 20 21.0019 18.6569 21.0019 17C21.0019 15.3431 19.6588 14 18.0019 14C16.345 14 15.0019 15.3431 15.0019 17C15.0019 18.6569 16.345 20 18.0019 20Z" fill="black"/>
</svg>
