<svg width="256" height="84" viewBox="0 0 256 84" fill="none" xmlns="http://www.w3.org/2000/svg">
<path d="M53.1555 29.8624C49.5407 30.2296 46.7555 31.2087 44.8592 32.9221C42.9036 34.5131 41.8962 36.8997 41.8962 40.0205C41.8962 43.6309 43.2592 46.3234 45.8074 48.0981C49.028 50.0622 52.7391 50.999 56.474 50.7906C58.9629 50.7906 61.2148 50.5458 63.1111 50.0562C65.0666 49.6279 66.6666 49.016 67.8518 48.2204C68.7407 47.6697 69.3925 47.119 69.9259 46.4458C70.5185 45.8339 70.7555 44.916 70.7555 43.8145V27.6594C70.7555 23.5595 69.4518 20.561 66.7851 18.6028C63.6715 16.5171 60.0037 15.49 56.2962 15.6655C54.5185 15.6655 52.8592 15.7879 51.1999 16.0939C49.5407 16.3387 48.0592 16.767 46.7555 17.3178C45.9518 17.6709 45.2409 18.2162 44.6814 18.9088C44.2495 19.5763 44.0413 20.3716 44.0888 21.1729C44.0888 21.9073 44.2074 22.5804 44.5629 23.2535C44.8592 23.8655 45.274 24.355 45.7481 24.7222C48.7804 23.2821 52.0702 22.511 55.4074 22.458C57.6592 22.458 59.3777 22.8252 60.6222 23.6819C61.8666 24.5386 62.5185 25.8236 62.5185 27.5983V28.8221L53.2148 29.8624H53.1555ZM62.4592 42.713C61.9259 43.1414 61.1555 43.4474 60.0888 43.6921C58.9206 43.9512 57.728 44.0744 56.5333 44.0593C54.3407 44.0593 52.7407 43.6921 51.7925 42.9578C51.3152 42.6044 50.9301 42.1345 50.6715 41.5899C50.413 41.0453 50.2892 40.443 50.3111 39.8369C50.3111 38.4907 50.7851 37.4504 51.7333 36.8385C52.6814 36.2265 54.1037 35.7982 55.8814 35.6146L62.3999 35.0027V42.7742L62.4592 42.713ZM78.9333 28.5162C81.1627 35.1628 83.6939 41.6973 86.5185 48.0981C86.9524 48.8775 87.6483 49.4654 88.474 49.7503C90.5355 50.3845 92.7221 50.4478 94.8148 49.9339C95.5409 49.776 96.2271 49.4633 96.8296 49.016C97.4222 47.7921 98.1925 46.3234 98.9629 44.5488C101.454 38.896 103.611 33.0924 105.422 27.1699C105.955 25.3953 106.43 23.8655 106.726 22.5192C107.081 21.1729 107.259 20.1938 107.259 19.5819C107.259 18.2969 106.844 17.3178 106.074 16.767C105.304 16.2163 104.296 15.9103 103.111 15.9103C102.459 15.9103 101.748 16.0327 101.096 16.1551C100.431 16.2963 99.7911 16.5441 99.1999 16.8894C98.2518 21.1729 97.1851 25.4565 95.8814 29.74C94.637 34.1459 93.3333 38.3683 92.0296 42.4683H91.7925C91.2601 40.7407 90.6871 39.0268 90.074 37.328C89.4554 35.3042 88.8233 33.2847 88.1777 31.2699L84.7999 19.7655C84.3851 18.358 83.8518 17.3178 83.0814 16.767C82.2463 16.175 81.2494 15.8747 80.237 15.9103C79.378 15.9096 78.5283 16.0943 77.7426 16.4526C76.9568 16.8109 76.2522 17.3349 75.674 17.9909C76.5273 21.5647 77.5961 25.08 78.874 28.5162H78.9333ZM122.252 29.8624C118.637 30.2296 115.852 31.2087 113.955 32.9221C112 34.5131 110.993 36.8997 110.993 40.0205C110.993 43.6309 112.355 46.3234 114.904 48.0981C118.124 50.0622 121.835 50.999 125.57 50.7906C128.059 50.7906 130.311 50.5458 132.207 50.0562C134.163 49.6279 135.763 49.016 136.948 48.2204C137.837 47.6697 138.489 47.119 139.022 46.4458C139.615 45.8339 139.852 44.916 139.852 43.8145V27.6594C139.852 23.5595 138.548 20.561 135.881 18.6028C132.751 16.5047 129.061 15.4771 125.333 15.6655C123.555 15.6655 121.896 15.7879 120.237 16.0939C118.578 16.3387 117.096 16.767 115.793 17.3178C114.989 17.6709 114.278 18.2162 113.718 18.9088C113.287 19.5763 113.078 20.3716 113.126 21.1729C113.126 21.9073 113.244 22.5804 113.6 23.2535C113.896 23.8655 114.311 24.355 114.785 24.7222C117.817 23.2821 121.107 22.511 124.444 22.458C126.696 22.458 128.415 22.8252 129.659 23.6819C130.904 24.5386 131.555 25.8236 131.555 27.5983V28.8221L122.252 29.8624V29.8624ZM131.555 42.713C131.022 43.1414 130.252 43.4474 129.185 43.6921C128.017 43.9512 126.824 44.0744 125.63 44.0593C123.437 44.0593 121.837 43.6921 120.889 42.9578C120.411 42.6044 120.026 42.1345 119.768 41.5899C119.509 41.0453 119.385 40.443 119.407 39.8369C119.407 38.4907 119.881 37.4504 120.83 36.8385C121.778 36.2265 123.2 35.7982 124.978 35.6146L131.496 35.0027V42.7742L131.555 42.713ZM151.407 40.816C152.355 43.5697 153.955 45.7727 156.267 47.4249C158.518 49.0772 161.185 49.8727 164.089 49.8727C166.521 49.8909 168.914 49.2366 171.019 47.9776C173.124 46.7186 174.864 44.9009 176.059 42.713C177.244 40.4489 177.896 37.9399 177.896 35.0639C177.896 32.1878 177.304 29.6788 176.118 27.4147C174.963 25.1606 173.216 23.288 171.078 22.011C168.941 20.734 166.498 20.1043 164.03 20.1938C161.239 20.1034 158.495 20.9488 156.209 22.6036C153.923 24.2583 152.218 26.6333 151.348 29.3729V20.3774H150.222V60.7651H151.348V40.816H151.407ZM153.067 27.9654C154.133 25.8236 155.674 24.2326 157.63 23.0699C159.526 21.8461 161.718 21.2341 164.148 21.2341C166.518 21.2341 168.652 21.8461 170.607 23.0699C172.504 24.2326 174.044 25.8236 175.17 27.9654C176.237 30.046 176.77 32.4325 176.77 35.0639C176.77 37.7564 176.237 40.0817 175.17 42.2235C174.127 44.2673 172.545 45.9646 170.607 47.119C168.652 48.2204 166.459 48.8324 164.089 48.8324C161.718 48.8324 159.526 48.2204 157.57 47.119C155.654 45.9555 154.094 44.2591 153.067 42.2235C151.936 40.0202 151.365 37.5569 151.407 35.0639C151.407 32.4325 151.941 30.046 153.067 27.9654V27.9654ZM194.548 33.7788C190.993 33.7788 188.444 34.5131 186.844 35.9818C185.244 37.3892 184.474 39.3474 184.474 41.6727C184.474 44.1205 185.304 46.1399 187.081 47.6697C188.859 49.1383 191.348 49.8727 194.489 49.8727C197.096 49.8727 199.348 49.3219 201.185 48.2204C203.022 47.0578 204.444 45.4667 205.333 43.5085V49.7503H206.459V30.4743C206.459 27.1699 205.57 24.5998 203.793 22.8252C202.074 21.1117 199.585 20.1938 196.267 20.1938C194.133 20.1938 192.118 20.6222 190.163 21.4177C188.207 22.152 186.607 23.2535 185.185 24.5998L185.955 25.3953C188.774 22.7439 192.454 21.2809 196.267 21.2953C199.23 21.2953 201.541 22.0296 203.022 23.6207C204.563 25.1505 205.333 27.4759 205.333 30.5355V33.7788H194.548V33.7788ZM205.333 41.3056C204.581 43.6184 203.11 45.61 201.149 46.971C199.188 48.332 196.847 48.9864 194.489 48.8324C191.704 48.8324 189.452 48.2204 187.911 46.8742C186.311 45.6503 185.541 43.8145 185.541 41.6116C185.541 39.531 186.252 37.9399 187.733 36.7161C189.155 35.4922 191.407 34.8803 194.489 34.8803H205.333V41.3056V41.3056ZM222.222 47.9757C224.345 49.2465 226.761 49.9019 229.215 49.8727C232.005 49.9631 234.749 49.1177 237.035 47.463C239.321 45.8082 241.027 43.4332 241.896 40.6936V49.7503H243.022V7.588H241.896V29.3729C240.963 26.675 239.242 24.3429 236.971 22.6986C234.699 21.0544 231.989 20.1791 229.215 20.1938C226.774 20.1287 224.363 20.7632 222.25 22.027C220.137 23.2909 218.404 25.1345 217.244 27.3535C216 29.5564 215.407 32.1266 215.407 34.9415C215.407 37.7564 216 40.3265 217.185 42.6518C218.37 44.916 220.089 46.6906 222.163 47.9145L222.222 47.9757ZM218.074 27.9042C219.117 25.8604 220.699 24.1631 222.637 23.0087C224.593 21.8461 226.785 21.2953 229.155 21.2953C231.526 21.2953 233.659 21.9073 235.674 23.0087C237.59 24.1722 239.151 25.8686 240.178 27.9042C241.304 29.9848 241.837 32.3713 241.837 35.0027C241.837 37.6952 241.244 40.0205 240.178 42.1623C239.127 44.2003 237.547 45.8955 235.615 47.0578C233.659 48.2816 231.467 48.8324 229.096 48.8324C226.726 48.8324 224.593 48.2204 222.637 47.0578C220.681 45.8339 219.2 44.2429 218.074 42.1623C216.944 39.959 216.373 37.4957 216.415 35.0027C216.415 32.3713 217.007 29.9848 218.074 27.9042V27.9042Z" fill="black"/>
<path d="M250.43 70.6784C250.015 70.6784 249.541 70.6784 249.067 70.5561H247.467L245.63 70.4337C244.918 70.4142 244.207 70.3938 243.496 70.3725C235.279 70.208 227.062 70.0448 218.844 69.8829L210.844 69.7605H208.77L206.696 69.6993H202.37L184 69.5158L174.281 69.4546L169.304 69.3934L164.326 69.271L159.289 69.0874C157.63 69.0874 155.97 68.965 154.252 68.8426C152.593 68.8426 150.933 68.7202 149.215 68.5979H147.97L146.667 68.4143L144.118 68.2307L139.081 67.8635L137.778 67.7412L136.593 67.6188L134.044 67.3128L132.859 67.1904L131.556 67.0068L129.067 66.6397L124.148 65.9054L119.23 65.0487L114.311 64.2531L111.881 63.8248L109.511 63.4576L107.022 63.0905L104.652 62.7845L102.222 62.4173L101.63 62.3561L101.037 62.2949L99.8518 62.1726L97.4814 61.9278L96.9481 61.8666H96.5333L96.4148 61.8054H96.3555L95.1703 61.683L90.4296 61.4382H81.5407L77.3333 61.683C75.9111 61.683 74.5481 61.8054 73.2444 61.8666C71.8222 61.9278 70.4592 62.1114 69.2148 62.2337C66.6666 62.4785 64.2963 62.7233 62.1629 62.7845C59.9703 62.7845 57.5407 63.1517 55.6444 61.9278C50.4888 58.3174 48.7111 52.0144 41.7185 51.0354L27.4963 50.0563H26.9629V18.7252C26.9629 17.1342 26.5481 15.9715 25.7777 15.3596C25.0666 14.7476 23.8222 14.5029 22.2222 14.5029C21.4518 14.5029 20.6814 14.5029 19.8518 14.6864L18.1925 15.0536V52.6264C18.1542 53.2694 18.2392 53.9139 18.4426 54.523C18.6459 55.132 18.9637 55.6936 19.3777 56.1756C19.8339 56.6229 20.3747 56.9679 20.9662 57.1891C21.5577 57.4102 22.187 57.5027 22.8148 57.4607L24.237 57.3383L27.9703 57.0323H32.8888C34.5481 57.0323 36.2666 57.0323 37.9259 57.2771C39.5851 57.4607 41.2444 58.0114 42.7851 58.6845C43.7925 59.1741 45.037 60.2144 45.7481 61.1323C50.2518 67.3128 53.6888 68.5979 54.9333 68.9038C57.3629 69.5158 59.9111 69.5158 62.4 69.4546C64.8888 69.3322 67.437 68.965 69.9259 68.5979C71.1703 68.4143 72.4148 68.2307 73.6592 68.1695L77.6888 67.8024L81.837 67.4964L86.0444 67.2516L90.4296 67.1292C91.8518 67.1292 93.3926 67.1292 94.874 67.2516H96.474L97.0666 67.3128L99.437 67.4964L100.622 67.5576L101.215 67.6188L101.807 67.68L104.059 67.9247L106.43 68.1695C108.01 68.3724 109.59 68.5763 111.17 68.7814C112 68.7814 112.83 68.965 113.659 69.0262L118.578 69.6382L123.556 70.3113L128.593 70.9232L131.081 71.168L132.385 71.2904L133.689 71.4128L136.237 71.5963L137.541 71.7187L138.844 71.7799L143.941 72.0247L146.489 72.1471H147.733L148.326 72.2083H149.037L154.133 72.2695L159.23 72.3307H164.326L169.304 72.2695L174.281 72.1471L184 71.9023L202.37 71.3516C203.852 71.3516 205.274 71.3516 206.696 71.2292H208.83L210.904 71.168L218.844 71.0456L232.77 70.8008L243.437 70.6172H249.067L250.37 70.7396L252.859 70.8008C252.859 70.8008 251.97 70.8008 250.43 70.6172V70.6784Z" fill="black"/>
</svg>
