<svg width="43" height="43" viewBox="0 0 43 43" fill="none" xmlns="http://www.w3.org/2000/svg">
<path fill-rule="evenodd" clip-rule="evenodd" d="M16.6063 15.7266C17.3059 13.3453 19.4553 11.6605 21.9196 11.6605C24.4179 11.6605 26.5925 13.3921 27.2611 15.8255L29.0467 13.5638C27.6976 10.9453 25.0122 9.1605 21.9196 9.1605C18.859 9.1605 16.1972 10.9086 14.8348 13.4828L16.6063 15.7266ZM30.3855 11.868L32.0123 9.80743C29.7317 6.63718 26.0603 4.58026 21.9196 4.58026C17.8096 4.58026 14.1619 6.60687 11.8778 9.7373L13.5007 11.7929C15.2969 8.94465 18.4168 7.08026 21.9196 7.08026C25.4532 7.08026 28.597 8.97746 30.3855 11.868ZM33.3039 8.17137L34.8938 6.15762C31.7754 2.39088 27.1202 0 21.9196 0C16.7492 0 12.1179 2.3632 9 6.09215L10.5879 8.10347C13.2542 4.67954 17.3554 2.5 21.9196 2.5C26.514 2.5 30.6391 4.70838 33.3039 8.17137ZM25 16.3811C25 18.0774 23.6569 19.4526 22 19.4526C20.3431 19.4526 19 18.0774 19 16.3811C19 14.6848 20.3431 13.3097 22 13.3097C23.6569 13.3097 25 14.6848 25 16.3811ZM0 40.0005C0 41.5419 1.16252 42.8118 2.65863 42.9812H20.9217C21.0449 41.4141 18.5884 40.441 16.0297 39.4274C13.322 38.3547 10.5 37.2368 10.5 35.3218C10.5 31.7656 17.2866 28.2831 21.0376 26.3583L21.0377 26.3583C21.6063 26.0665 22.1051 25.8105 22.5 25.5955C24.7203 24.3865 21.7369 21.8826 20.0362 20.4553L20.0361 20.4552C19.9637 20.3944 19.8936 20.3356 19.8263 20.2789C19.1404 20.0915 18.52 19.8132 17.9957 19.4654C17.579 19.8221 17.2017 20.2456 16.8783 20.736L11.7767 28.4728L10.3566 26.4759C9.55922 25.3547 7.89421 25.3547 7.09686 26.4759L0 36.4549V40.0005ZM43 40.0005V38.4179L40.1099 34.0709C39.7143 33.4757 38.8401 33.4757 38.4444 34.0709L37.0612 36.1514L26.8964 20.736C26.573 20.2454 26.1954 19.8218 25.7786 19.4651C24.7665 20.1367 23.3959 20.5491 21.8869 20.5491C21.7975 20.5491 21.7086 20.5476 21.6203 20.5448C24.6644 22.1637 29.0266 25.07 27 26.1074C26.6873 26.2675 26.3095 26.4554 25.8885 26.6647L25.8884 26.6647C22.2705 28.4635 15.469 31.8452 19.5 32.7623C23.1407 33.5906 37.9091 39.8981 35.599 42.9812H40.3414C41.8375 42.8118 43 41.5419 43 40.0005Z" fill="black"/>
</svg>
