<?xml version="1.0" encoding="utf-8"?>
<!-- Generator: Adobe Illustrator 16.0.0, SVG Export Plug-In . SVG Version: 6.00 Build 0)  -->
<!DOCTYPE svg PUBLIC "-//W3C//DTD SVG 1.1//EN" "http://www.w3.org/Graphics/SVG/1.1/DTD/svg11.dtd">
<svg version="1.1" id="Layer_1" xmlns="http://www.w3.org/2000/svg" xmlns:xlink="http://www.w3.org/1999/xlink" x="0px" y="0px"
	 width="432px" height="138.393px" viewBox="0 0 432 138.393" enable-background="new 0 0 432 138.393" xml:space="preserve">
<path d="M89.723,48.753c-6.161,0.609-10.858,2.264-14.09,4.963c-3.233,2.701-4.849,6.599-4.849,11.694
	c0,5.858,2.186,10.25,6.56,13.177c4.373,2.927,10.362,4.393,17.969,4.393c4.182,0,7.909-0.381,11.18-1.141
	c3.27-0.759,5.97-1.786,8.101-3.08c1.369-0.836,2.51-1.786,3.423-2.853c0.913-1.064,1.369-2.51,1.369-4.335V45.217
	c0-6.692-2.225-11.637-6.674-14.832c-4.45-3.195-10.402-4.792-17.855-4.792c-2.892,0-5.744,0.229-8.557,0.685
	c-2.815,0.457-5.325,1.141-7.53,2.054c-1.598,0.761-2.758,1.617-3.48,2.567c-0.724,0.952-1.083,2.188-1.083,3.708
	c0,1.217,0.285,2.339,0.855,3.365c0.57,1.027,1.273,1.845,2.11,2.453c2.206-1.064,4.715-1.958,7.53-2.681
	c2.813-0.722,5.705-1.083,8.67-1.083c3.803,0,6.75,0.684,8.842,2.053c2.091,1.369,3.138,3.5,3.138,6.389v2.053L89.723,48.753z
	 M105.354,69.86c-0.838,0.609-2.167,1.123-3.993,1.54c-1.825,0.419-3.841,0.627-6.046,0.627c-3.651,0-6.295-0.608-7.929-1.825
	c-1.637-1.216-2.453-2.927-2.453-5.134c0-2.205,0.798-3.822,2.396-4.849c1.597-1.027,3.917-1.692,6.959-1.997l11.066-1.027V69.86z"
	/>
<path d="M133.248,46.585c1.102,3.195,2.262,6.409,3.479,9.641c1.216,3.234,2.396,6.294,3.537,9.184
	c1.141,2.892,2.205,5.477,3.194,7.758c0.987,2.282,1.825,4.069,2.51,5.362c0.685,1.294,1.806,2.225,3.366,2.795
	c1.558,0.57,3.44,0.855,5.647,0.855c1.825,0,3.498-0.19,5.02-0.57c1.521-0.38,2.661-0.874,3.422-1.483
	c1.064-1.977,2.243-4.41,3.537-7.302c1.292-2.89,2.585-5.951,3.879-9.185c1.292-3.232,2.547-6.521,3.765-9.868
	c1.216-3.346,2.3-6.464,3.251-9.355c0.95-2.89,1.711-5.437,2.282-7.644c0.571-2.205,0.856-3.802,0.856-4.792
	c0-2.128-0.667-3.651-1.997-4.564c-1.332-0.913-2.986-1.369-4.963-1.369c-1.141,0-2.301,0.133-3.479,0.399
	c-1.18,0.267-2.225,0.667-3.138,1.198c-1.597,6.922-3.462,13.938-5.59,21.049c-2.13,7.113-4.298,14.015-6.503,20.707h-0.457
	c-0.305-0.987-0.704-2.225-1.198-3.708c-0.496-1.483-1.009-3.041-1.541-4.677c-0.533-1.635-1.083-3.309-1.654-5.02
	c-0.57-1.711-1.083-3.327-1.54-4.849l-5.704-18.824c-0.685-2.357-1.655-3.993-2.91-4.906c-1.255-0.913-2.872-1.369-4.849-1.369
	c-1.522,0-2.986,0.324-4.393,0.97c-1.408,0.647-2.492,1.426-3.251,2.339c0.608,2.358,1.387,5.02,2.339,7.986
	C131.117,40.311,132.144,43.391,133.248,46.585z"/>
<path d="M206.322,48.753c-6.161,0.609-10.858,2.264-14.09,4.963c-3.234,2.701-4.849,6.599-4.849,11.694
	c0,5.858,2.186,10.25,6.56,13.177c4.373,2.927,10.363,4.393,17.969,4.393c4.182,0,7.91-0.381,11.18-1.141
	c3.27-0.759,5.971-1.786,8.101-3.08c1.369-0.836,2.51-1.786,3.423-2.853c0.913-1.064,1.369-2.51,1.369-4.335V45.217
	c0-6.692-2.225-11.637-6.674-14.832c-4.45-3.195-10.402-4.792-17.855-4.792c-2.891,0-5.744,0.229-8.557,0.685
	c-2.814,0.457-5.325,1.141-7.53,2.054c-1.597,0.761-2.758,1.617-3.479,2.567c-0.724,0.952-1.084,2.188-1.084,3.708
	c0,1.217,0.285,2.339,0.855,3.365c0.571,1.027,1.273,1.845,2.111,2.453c2.205-1.064,4.715-1.958,7.53-2.681
	c2.813-0.722,5.705-1.083,8.671-1.083c3.802,0,6.749,0.684,8.841,2.053c2.092,1.369,3.138,3.5,3.138,6.389v2.053L206.322,48.753z
	 M221.952,69.86c-0.838,0.609-2.167,1.123-3.993,1.54c-1.825,0.419-3.841,0.627-6.046,0.627c-3.651,0-6.294-0.608-7.929-1.825
	c-1.637-1.216-2.453-2.927-2.453-5.134c0-2.205,0.798-3.822,2.396-4.849s3.917-1.692,6.959-1.997l11.066-1.027V69.86z"/>
<path d="M255.47,66.7c1.608,4.517,4.346,8.119,8.213,10.811c3.865,2.69,8.272,4.036,13.223,4.036c4.329,0,8.273-1.035,11.831-3.108
	c3.557-2.072,6.356-4.949,8.397-8.63c2.042-3.68,3.063-7.841,3.063-12.48s-1.021-8.815-3.063-12.527
	c-2.041-3.711-4.841-6.603-8.397-8.676c-3.558-2.072-7.502-3.108-11.831-3.108c-5.011,0-9.435,1.346-13.27,4.037
	c-3.836,2.691-6.558,6.326-8.166,10.903V33.295h-1.855V99.27h1.855V66.7z M258.254,45.683c1.856-3.433,4.423-6.108,7.702-8.026
	c3.278-1.917,6.928-2.876,10.949-2.876c4.021,0,7.67,0.96,10.949,2.876c3.278,1.918,5.846,4.593,7.702,8.026
	c1.855,3.434,2.783,7.316,2.783,11.646c0,4.331-0.928,8.212-2.783,11.646c-1.856,3.434-4.424,6.094-7.702,7.98
	c-3.279,1.888-6.929,2.831-10.949,2.831c-4.021,0-7.671-0.943-10.949-2.831c-3.279-1.886-5.846-4.546-7.702-7.98
	c-1.855-3.433-2.784-7.314-2.784-11.646C255.47,52.999,256.398,49.116,258.254,45.683z"/>
<path d="M328.312,55.194c-6.001,0-10.347,1.192-13.038,3.573c-2.69,2.382-4.036,5.491-4.036,9.326c0,4.083,1.499,7.346,4.501,9.79
	c2.999,2.444,7.159,3.665,12.48,3.665c4.392,0,8.149-0.928,11.274-2.784c3.123-1.856,5.458-4.422,7.006-7.702v10.207h1.855V49.812
	c0-5.443-1.471-9.604-4.407-12.48c-2.939-2.876-7.191-4.315-12.76-4.315c-3.588,0-7.021,0.635-10.3,1.902
	c-3.279,1.269-6.063,3.016-8.351,5.243l1.299,1.299c2.164-2.042,4.746-3.666,7.748-4.872c3-1.207,6.231-1.81,9.697-1.81
	c5.01,0,8.799,1.269,11.366,3.804c2.566,2.538,3.852,6.31,3.852,11.321v5.289H328.312z M346.499,67.536
	c-3.28,8.166-9.373,12.249-18.28,12.249c-4.765,0-8.477-1.051-11.135-3.155c-2.661-2.102-3.99-4.979-3.99-8.63
	c0-3.401,1.221-6.092,3.665-8.073c2.442-1.979,6.264-2.969,11.46-2.969h18.28V67.536z"/>
<path d="M374.938,78.438c3.557,2.073,7.5,3.108,11.831,3.108c5.011,0,9.433-1.346,13.269-4.036
	c3.836-2.691,6.557-6.325,8.166-10.903v14.661h1.856V12.417h-1.856v35.446c-1.609-4.515-4.347-8.119-8.212-10.81
	c-3.866-2.691-8.274-4.037-13.223-4.037c-4.331,0-8.274,1.037-11.831,3.108c-3.558,2.074-6.356,4.95-8.397,8.63
	c-2.042,3.681-3.063,7.841-3.063,12.48s1.021,8.815,3.063,12.527C368.582,73.474,371.381,76.367,374.938,78.438z M368.118,45.59
	c1.855-3.433,4.422-6.092,7.702-7.98c3.277-1.886,6.927-2.83,10.949-2.83c4.021,0,7.67,0.944,10.949,2.83
	c3.278,1.888,5.846,4.547,7.702,7.98c1.855,3.434,2.783,7.316,2.783,11.646c0,4.331-0.928,8.212-2.783,11.646
	c-1.856,3.433-4.424,6.11-7.702,8.026c-3.279,1.918-6.929,2.877-10.949,2.877c-4.022,0-7.672-0.958-10.949-2.877
	c-3.28-1.917-5.847-4.593-7.702-8.026c-1.855-3.434-2.784-7.314-2.784-11.646C365.334,52.906,366.263,49.023,368.118,45.59z"/>
<path d="M418,94.5L45.58,87.73V32.864c0-2.874-0.654-4.802-1.96-5.782c-1.308-0.98-3.43-1.47-6.37-1.47
	c-1.308,0-2.631,0.098-3.969,0.294c-1.34,0.196-2.369,0.36-3.087,0.49v65.646c0,2.484,0.735,4.459,2.205,5.929
	c1.47,1.47,3.445,2.205,5.929,2.205L418,94.5z"/>
</svg>
