<svg xmlns="http://www.w3.org/2000/svg" viewBox="0 0 432 138.4">
  <path d="M89.7 48.8c-6.1.6-10.8 2.2-14 5-3.3 2.6-5 6.5-5 11.6 0 5.9 2.3 10.3 6.6 13.2a32 32 0 0018 4.4c4.2 0 8-.4 11.2-1.2 3.3-.7 6-1.7 8-3 1.5-.9 2.6-1.8 3.5-2.9 1-1 1.4-2.5 1.4-4.3V45.2c0-6.7-2.2-11.6-6.7-14.8A30 30 0 0095 25.6c-3 0-5.8.2-8.6.7-2.8.4-5.3 1.1-7.5 2a9.3 9.3 0 00-3.5 2.6 6 6 0 00-1 3.7c0 1.2.2 2.3.8 3.4.5 1 1.2 1.8 2 2.4a40.5 40.5 0 0116.3-3.7c3.8 0 6.7.6 8.8 2 2.1 1.4 3.2 3.5 3.2 6.4v2l-15.7 1.7zm15.7 21c-.9.7-2.2 1.2-4 1.6a27 27 0 01-6 .6c-3.7 0-6.4-.6-8-1.8a6 6 0 01-2.5-5.1c0-2.2.8-3.9 2.4-4.9 1.6-1 4-1.7 7-2l11-1v12.7zM133.2 46.6a366.2 366.2 0 0012.8 32 6 6 0 003.3 2.7 20.7 20.7 0 0010.7.3 9 9 0 003.4-1.5c1-2 2.3-4.4 3.6-7.3a251 251 0 0010.9-28.4c.9-2.9 1.7-5.4 2.2-7.6.6-2.2.9-3.8.9-4.8 0-2.1-.7-3.7-2-4.6-1.3-.9-3-1.4-5-1.4-1.1 0-2.3.2-3.4.4a11 11 0 00-3.2 1.2c-1.6 7-3.4 14-5.6 21-2.1 7.2-4.3 14.1-6.5 20.8h-.4A183 183 0 00152 61a756.4 756.4 0 00-3.2-9.9l-5.7-18.8c-.7-2.3-1.6-4-2.9-4.9a8 8 0 00-4.8-1.4 10.4 10.4 0 00-7.7 3.4 144.4 144.4 0 005.4 17.2zM206.3 48.8c-6.1.6-10.8 2.2-14 5-3.3 2.6-5 6.5-5 11.6 0 5.9 2.3 10.3 6.6 13.2a32 32 0 0018 4.4c4.2 0 8-.4 11.2-1.2 3.3-.7 6-1.7 8-3 1.5-.9 2.6-1.8 3.5-2.9 1-1 1.4-2.5 1.4-4.3V45.2c0-6.7-2.2-11.6-6.7-14.8a30 30 0 00-17.8-4.8c-3 0-5.8.2-8.6.7-2.8.4-5.3 1.1-7.5 2a9.3 9.3 0 00-3.5 2.6 6 6 0 00-1 3.7c0 1.2.2 2.3.8 3.4.5 1 1.2 1.8 2 2.4a40.5 40.5 0 0116.3-3.7c3.8 0 6.7.6 8.8 2 2.1 1.4 3.2 3.5 3.2 6.4v2l-15.7 1.7zm15.7 21c-.9.7-2.2 1.2-4 1.6a27 27 0 01-6 .6c-3.7 0-6.4-.6-8-1.8a6 6 0 01-2.5-5.1c0-2.2.8-3.9 2.4-4.9s4-1.7 7-2l11-1v12.7zM255.5 66.7c1.6 4.5 4.3 8.1 8.2 10.8 3.8 2.7 8.3 4 13.2 4a23 23 0 0020.2-11.7c2-3.7 3.1-7.8 3.1-12.5s-1-8.8-3-12.5A22.2 22.2 0 00276.8 33a21.8 21.8 0 00-21.4 15V33.3h-1.9v66h1.9V66.7zm2.8-21c1.8-3.5 4.4-6.1 7.7-8 3.2-2 6.9-3 11-3 4 0 7.6 1 10.9 3 3.2 1.9 5.8 4.5 7.7 8 1.8 3.4 2.7 7.3 2.7 11.6 0 4.4-.9 8.2-2.7 11.7a20 20 0 01-7.7 8c-3.3 1.8-7 2.8-11 2.8s-7.7-1-11-2.8a20 20 0 01-7.6-8 24.1 24.1 0 01-2.8-11.7c0-4.3.9-8.2 2.8-11.6zM328.3 55.2c-6 0-10.3 1.2-13 3.6-2.7 2.3-4 5.5-4 9.3 0 4 1.4 7.3 4.4 9.8 3 2.4 7.2 3.6 12.5 3.6 4.4 0 8.2-.9 11.3-2.7 3.1-1.9 5.5-4.5 7-7.7v10.2h1.9V49.8c0-5.4-1.5-9.6-4.5-12.5-2.9-2.8-7.1-4.3-12.7-4.3-3.6 0-7 .7-10.3 2-3.3 1.2-6 3-8.4 5.2l1.3 1.3a25.7 25.7 0 0117.4-6.7c5 0 8.9 1.2 11.4 3.8 2.6 2.5 3.9 6.3 3.9 11.3v5.3h-18.2zm18.2 12.3a18.1 18.1 0 01-18.3 12.3c-4.7 0-8.5-1-11.1-3.2-2.7-2-4-5-4-8.6 0-3.4 1.2-6 3.7-8 2.4-2 6.2-3 11.4-3h18.3v10.5zM375 78.4a23 23 0 0011.8 3.1 21.8 21.8 0 0021.4-15v14.8h1.9V12.4h-1.9V48A22.6 22.6 0 00386.8 33a22.3 22.3 0 00-20.2 11.7c-2.1 3.6-3.1 7.8-3.1 12.4s1 8.8 3 12.6c2 3.7 4.9 6.6 8.4 8.6zM368 45.6a20 20 0 017.7-8c3.3-1.9 7-2.8 11-2.8s7.6 1 11 2.8a20 20 0 017.6 8c1.9 3.4 2.8 7.3 2.8 11.6 0 4.4-1 8.2-2.8 11.7a20.3 20.3 0 01-7.7 8c-3.3 2-7 2.9-11 2.9s-7.6-1-10.9-2.9c-3.3-2-5.8-4.6-7.7-8a24.1 24.1 0 01-2.8-11.7c0-4.3 1-8.2 2.8-11.6z"/>
  <path d="M422.6 115.5c-.7 0-1.5 0-2.3-.2h-2.7l-3.1-.2a1462.1 1462.1 0 01-3.6-.1 139688 139688 0 00-41.6-.8l-13.5-.2h-3.5l-3.5-.1h-7.3l-31-.3-16.4-.1-8.4-.1-8.4-.2-8.5-.3c-2.8 0-5.6-.2-8.5-.4-2.8 0-5.6-.2-8.5-.4h-2.1l-2.2-.3-4.3-.3-8.5-.6-2.2-.2-2-.2-4.3-.5-2-.2-2.2-.3-4.2-.6-8.3-1.2-8.3-1.4-8.3-1.3-4.1-.7-4-.6-4.2-.6-4-.5-4.1-.6-1-.1-1-.1-2-.2-4-.4-.9-.1h-.7l-.2-.1h-.1l-2-.2-8-.4h-15l-7.1.4c-2.4 0-4.7.2-6.9.3-2.4.1-4.7.4-6.8.6-4.3.4-8.3.8-11.9.9-3.7 0-7.8.6-11-1.4-8.7-5.9-11.7-16.2-23.5-17.8l-24-1.6h-.9V30.6c0-2.6-.7-4.5-2-5.5-1.2-1-3.3-1.4-6-1.4-1.3 0-2.6 0-4 .3l-2.8.6V86a8 8 0 002 5.8 7.7 7.7 0 005.8 2.1l2.4-.2 6.3-.5h8.3c2.8 0 5.7 0 8.5.4 2.8.3 5.6 1.2 8.2 2.3 1.7.8 3.8 2.5 5 4 7.6 10.1 13.4 12.2 15.5 12.7 4.1 1 8.4 1 12.6.9 4.2-.2 8.5-.8 12.7-1.4 2.1-.3 4.2-.6 6.3-.7l6.8-.6 7-.5 7.1-.4 7.4-.2c2.4 0 5 0 7.5.2H162.8l1 .1 4 .3 2 .1 1 .1 1 .1 3.8.4 4 .4a5782.3 5782.3 0 018 1c1.4 0 2.8.3 4.2.4l8.3 1 8.4 1.1 8.5 1 4.2.4 2.2.2 2.2.2 4.3.3 2.2.2 2.2.1 8.6.4 4.3.2h2.1l1 .1h1.2l8.6.1 8.6.1h8.6l8.4-.1 8.4-.2 16.4-.4 31-.9c2.5 0 4.9 0 7.3-.2h3.6l3.5-.1 13.4-.2 23.5-.4 18-.3h9.5l2.2.2 4.2.1s-1.5 0-4.1-.3z"/>
</svg>
