<svg width="50" height="43" viewBox="0 0 50 43" fill="none" xmlns="http://www.w3.org/2000/svg">
<g clip-path="url(#clip0)">
<rect width="50" height="43" fill="white"/>
<circle cx="26" cy="17" r="3" fill="black"/>
<path fill-rule="evenodd" clip-rule="evenodd" d="M20.6111 15.3667C21.3086 13.0972 23.4214 11.4474 25.9196 11.4474C28.453 11.4474 30.59 13.1439 31.2567 15.4627L33.0467 13.2482C31.6976 10.6907 29.0122 8.94737 25.9196 8.94737C22.859 8.94737 20.1972 10.6548 18.8348 13.1692L20.6111 15.3667ZM34.3734 11.6069L36.0123 9.57925C33.7317 6.48275 30.0603 4.47369 25.9196 4.47369C21.8096 4.47369 18.1619 6.45316 15.8778 9.51076L17.513 11.5338C19.3017 8.78855 22.3987 6.97369 25.9196 6.97369C29.4717 6.97369 32.5923 8.82079 34.3734 11.6069ZM37.289 7.99974L38.8938 6.01436C35.7754 2.33526 31.1202 0 25.9196 0C20.7492 0 16.1179 2.30822 13 5.95041L14.603 7.93363C17.2604 4.62092 21.3424 2.5 25.9196 2.5C30.5273 2.5 34.633 4.64917 37.289 7.99974Z" fill="black"/>
<path fill-rule="evenodd" clip-rule="evenodd" d="M24.0362 21.9802C25.7369 23.3754 28.7203 25.8231 26.5 27.0049C26.1051 27.2151 25.6062 27.4653 25.0376 27.7505C21.2866 29.6321 14.5 33.0363 14.5 36.5126C14.5 38.3846 17.322 39.4774 20.0297 40.526C22.5883 41.5168 25.0449 42.4681 24.9217 44H0.0128568C-0.044806 43.5297 0.0640682 43.0303 0.384396 42.59L11.1094 27.8482C11.9081 26.7503 13.5453 26.7503 14.344 27.8482L15.7767 29.8175L20.9132 22.2028C21.2242 21.7418 21.5831 21.3412 21.9776 21.0007C22.5056 21.3462 23.1324 21.6224 23.8263 21.8077C23.8936 21.8632 23.9638 21.9207 24.0362 21.9802ZM25.6203 22.0676C28.6644 23.6502 33.0266 26.4912 31 27.5053C30.6873 27.6618 30.3094 27.8454 29.8884 28.0501C26.2705 29.8085 19.469 33.1141 23.5 34.0106C27.1407 34.8203 41.9091 40.9861 39.599 44H50.0338L44.1041 35.2812C43.7072 34.6977 42.8471 34.6977 42.4503 35.2812L41.0612 37.3236L30.8615 22.2028C30.5505 21.7417 30.1914 21.3409 29.7967 21.0004C28.7829 21.6639 27.4049 22.0718 25.8869 22.0718C25.7975 22.0718 25.7086 22.0704 25.6203 22.0676Z" fill="black"/>
</g>
<defs>
<clipPath id="clip0">
<rect width="50" height="43" fill="white"/>
</clipPath>
</defs>
</svg>
