<svg width="46" height="46" viewBox="0 0 46 46" fill="none" xmlns="http://www.w3.org/2000/svg">
<g clip-path="url(#clip0)">
<rect width="46" height="46" fill="white"/>
<path d="M45 23C45 35.1503 35.1503 45 23 45C10.8497 45 1 35.1503 1 23C1 10.8497 10.8497 1 23 1C35.1503 1 45 10.8497 45 23Z" fill="#C4C4C4" fill-opacity="0.38"/>
<path fill-rule="evenodd" clip-rule="evenodd" d="M5.91723 36.864L8.11132 33.8482C8.91004 32.7503 10.5472 32.7503 11.3459 33.8482L12.7786 35.8175L17.9151 28.2028C18.226 27.7418 18.585 27.3412 18.9795 27.0007C19.5075 27.3462 20.1343 27.6224 20.8282 27.8077C20.8954 27.863 20.9653 27.9205 21.0376 27.9798L21.0381 27.9802C22.7388 29.3754 25.7222 31.8231 23.5019 33.0049C23.107 33.2151 22.6081 33.4653 22.0395 33.7505C18.5402 35.5058 12.3993 38.5862 11.5907 41.814C9.42642 40.4988 7.50712 38.8206 5.91723 36.864ZM30.1014 43.8287C26.3975 41.9606 22.2162 40.3919 20.5019 40.0106C16.4709 39.1141 23.2724 35.8085 26.8903 34.0501L26.8905 34.05C27.3114 33.8454 27.6892 33.6618 28.0019 33.5053C30.0285 32.4912 25.6663 29.6502 22.6221 28.0676C22.7105 28.0704 22.7994 28.0718 22.8888 28.0718C24.4068 28.0718 25.7848 27.6639 26.7986 27.0004C27.1933 27.3409 27.5524 27.7417 27.8634 28.2028L36.2179 40.5882C34.3813 41.9706 32.3211 43.0721 30.1014 43.8287ZM22.9215 17.4474C20.4233 17.4474 18.3104 19.0972 17.613 21.3667L15.8367 19.1692C17.1991 16.6548 19.8609 14.9474 22.9215 14.9474C26.0141 14.9474 28.6995 16.6907 30.0486 19.2482L28.2586 21.4627C27.5919 19.1439 25.4548 17.4474 22.9215 17.4474ZM33.0142 15.5793L31.3753 17.6069C29.5942 14.8208 26.4736 12.9737 22.9215 12.9737C19.4006 12.9737 16.3036 14.7886 14.5149 17.5338L12.8797 15.5108C15.1638 12.4532 18.8115 10.4737 22.9215 10.4737C27.0622 10.4737 30.7336 12.4828 33.0142 15.5793ZM35.8957 12.0144L34.2909 13.9997C31.6349 10.6492 27.5292 8.5 22.9215 8.5C18.3442 8.5 14.2623 10.6209 11.6049 13.9336L10.0019 11.9504C13.1198 8.30822 17.7511 6 22.9215 6C28.1221 6 32.7773 8.33526 35.8957 12.0144ZM23.0019 26C24.6587 26 26.0019 24.6569 26.0019 23C26.0019 21.3431 24.6587 20 23.0019 20C21.345 20 20.0019 21.3431 20.0019 23C20.0019 24.6569 21.345 26 23.0019 26Z" fill="black"/>
</g>
<defs>
<clipPath id="clip0">
<rect width="46" height="46" fill="white"/>
</clipPath>
</defs>
</svg>
