<svg width="43" height="43" viewBox="0 0 43 43" fill="none" xmlns="http://www.w3.org/2000/svg">
<g clip-path="url(#clip0)">
<path fill-rule="evenodd" clip-rule="evenodd" d="M2.65863 42.9812C1.16252 42.8118 0 41.5419 0 40.0004V36.4549L7.09686 26.4759C7.89421 25.3547 9.55922 25.3547 10.3566 26.4759L11.7767 28.4728L16.8783 20.736C17.2017 20.2456 17.579 19.8221 17.9957 19.4654C18.52 19.8132 19.1404 20.0915 19.8263 20.2789C19.8936 20.3356 19.9637 20.3944 20.0361 20.4552L20.0362 20.4553C21.7369 21.8826 24.7203 24.3865 22.5 25.5955C22.1051 25.8105 21.6063 26.0665 21.0377 26.3583L21.0376 26.3583C17.2866 28.2831 10.5 31.7656 10.5 35.3218C10.5 37.2368 13.322 38.3547 16.0297 39.4274C18.5884 40.441 21.0449 41.4141 20.9217 42.9812H2.65863ZM43 38.4179V40.0004C43 41.5419 41.8375 42.8118 40.3414 42.9812H35.599C37.9091 39.8981 23.1407 33.5906 19.5 32.7623C15.469 31.8452 22.2705 28.4635 25.8884 26.6647L25.8885 26.6647C26.3095 26.4554 26.6873 26.2675 27 26.1074C29.0266 25.07 24.6644 22.1637 21.6203 20.5448C21.7086 20.5476 21.7975 20.5491 21.8869 20.5491C23.3959 20.5491 24.7665 20.1367 25.7786 19.4651C26.1954 19.8218 26.573 20.2454 26.8964 20.736L37.0612 36.1514L38.4444 34.0709C38.8401 33.4757 39.7143 33.4757 40.1099 34.0709L43 38.4179Z" fill="black"/>
<path fill-rule="evenodd" clip-rule="evenodd" d="M16.6063 15.7266C17.3059 13.3453 19.4553 11.6605 21.9196 11.6605C24.4179 11.6605 26.5925 13.3921 27.2611 15.8255L29.0467 13.5638C27.6976 10.9453 25.0122 9.1605 21.9196 9.1605C18.859 9.1605 16.1972 10.9086 14.8348 13.4828L16.6063 15.7266ZM30.3855 11.868L32.0123 9.80743C29.7317 6.63718 26.0603 4.58026 21.9196 4.58026C17.8096 4.58026 14.1619 6.60687 11.8778 9.7373L13.5007 11.7929C15.2969 8.94465 18.4168 7.08026 21.9196 7.08026C25.4532 7.08026 28.597 8.97746 30.3855 11.868ZM33.3039 8.17137L34.8938 6.15762C31.7754 2.39088 27.1202 0 21.9196 0C16.7492 0 12.1179 2.3632 9 6.09215L10.5879 8.10347C13.2542 4.67954 17.3554 2.5 21.9196 2.5C26.514 2.5 30.6391 4.70838 33.3039 8.17137Z" fill="black"/>
<ellipse cx="22" cy="16.3811" rx="3" ry="3.07146" fill="black"/>
</g>
<defs>
<clipPath id="clip0">
<rect width="43" height="43" rx="3" fill="white"/>
</clipPath>
</defs>
</svg>
