<svg viewBox="0 0 432 121" fill="none" xmlns="http://www.w3.org/2000/svg">
  <path fill-rule="evenodd" clip-rule="evenodd" d="M75.6 53.7c3.3-2.7 8-4.3 14.1-5l15.7-1.5V45c0-2.9-1-5-3.2-6.4-2-1.4-5-2-8.8-2a40.5 40.5 0 00-16.2 3.8 7.4 7.4 0 01-3-5.9 6 6 0 011-3.7c.8-1 2-1.8 3.6-2.6a53.4 53.4 0 0116-2.7 30 30 0 0118 4.8c4.4 3.2 6.6 8.1 6.6 14.8v26.4c0 1.8-.5 3.2-1.4 4.3-.9 1-2 2-3.4 2.9a27.7 27.7 0 01-8.1 3c-3.3.8-7 1.2-11.2 1.2a32 32 0 01-18-4.4c-4.3-3-6.5-7.3-6.5-13.2 0-5 1.6-9 4.8-11.7zm25.8 17.7c1.8-.4 3.1-1 4-1.5V57.2l-11.1 1c-3 .3-5.4 1-7 2-1.6 1-2.4 2.7-2.4 4.9s.8 3.9 2.5 5.1c1.6 1.2 4.3 1.8 8 1.8a27 27 0 006-.6zM45.6 87.7L418 94.5l-379.7 5.7a8 8 0 01-5.9-2.2 8 8 0 01-2.2-6V26.4a98.5 98.5 0 017-.8c3 0 5.1.5 6.4 1.5 1.3 1 2 2.9 2 5.8v54.8zm87.6-41.1a366.2 366.2 0 0012.8 32 6 6 0 003.3 2.7 20.7 20.7 0 0010.7.3 9 9 0 003.4-1.5c1-2 2.3-4.4 3.6-7.3a251 251 0 0010.9-28.4c1-2.9 1.7-5.4 2.2-7.6.6-2.2.9-3.8.9-4.8 0-2.1-.7-3.7-2-4.6-1.3-.9-3-1.4-5-1.4-1.1 0-2.3.2-3.4.4a11 11 0 00-3.2 1.2c-1.6 7-3.4 14-5.6 21-2.1 7.2-4.3 14.1-6.5 20.8h-.4A183 183 0 00152 61a756.4 756.4 0 00-3.2-9.9l-5.7-18.8c-.7-2.3-1.6-4-2.9-4.9a8 8 0 00-4.8-1.4 10.4 10.4 0 00-7.7 3.4 144.4 144.4 0 005.4 17.2zm59 7.1c3.3-2.7 8-4.3 14.1-5l15.7-1.5V45c0-2.9-1-5-3.2-6.4-2-1.4-5-2-8.8-2a40.5 40.5 0 00-16.2 3.8 7.4 7.4 0 01-3-5.9 6 6 0 011-3.7c.8-1 2-1.8 3.6-2.6a53.4 53.4 0 0116-2.7 30 30 0 0118 4.8c4.4 3.2 6.6 8.1 6.6 14.8v26.4c0 1.8-.5 3.2-1.4 4.3-.9 1-2 2-3.4 2.9a27.7 27.7 0 01-8.1 3c-3.3.8-7 1.2-11.2 1.2a32 32 0 01-18-4.4c-4.3-3-6.5-7.3-6.5-13.2 0-5 1.6-9 4.8-11.7zM218 71.4c1.8-.4 3.1-1 4-1.5V57.2l-11.1 1c-3 .3-5.4 1-7 2-1.6 1-2.4 2.7-2.4 4.9s.8 3.9 2.5 5.1c1.6 1.2 4.3 1.8 8 1.8a27 27 0 006-.6z" fill="#000"/>
  <path fill-rule="evenodd" clip-rule="evenodd" d="M386.8 81.5a23 23 0 01-11.9-3c-3.5-2.1-6.3-5-8.4-8.7-2-3.8-3-8-3-12.6s1-8.8 3-12.4A22.3 22.3 0 01386.8 33 22.6 22.6 0 01408.2 48V12.4h1.9v68.9h-1.9V66.6a21.8 21.8 0 01-8.2 11c-3.8 2.6-8.2 4-13.2 4zm-11-43.9a20 20 0 00-7.7 8 24.1 24.1 0 00-2.8 11.6c0 4.4 1 8.2 2.8 11.7 1.9 3.4 4.4 6 7.7 8s7 2.9 11 2.9 7.6-1 11-2.9c3.2-2 5.8-4.6 7.6-8 1.9-3.5 2.8-7.3 2.8-11.7 0-4.3-1-8.2-2.8-11.6a20 20 0 00-7.7-8c-3.3-1.9-7-2.8-11-2.8s-7.6 1-10.9 2.8zm-47.5 17.6c-6 0-10.3 1.2-13 3.6-2.7 2.3-4 5.5-4 9.3 0 4 1.4 7.3 4.4 9.8 3 2.4 7.2 3.6 12.5 3.6 4.4 0 8.2-.9 11.3-2.7 3.1-1.9 5.5-4.5 7-7.7v10.2h1.9V49.8c0-5.4-1.5-9.6-4.5-12.5-2.9-2.8-7.1-4.3-12.7-4.3-3.6 0-7 .7-10.3 2-3.3 1.2-6 3-8.4 5.2l1.3 1.3a25.7 25.7 0 0117.4-6.7c5 0 8.9 1.2 11.4 3.8 2.6 2.5 3.9 6.3 3.9 11.3v5.3h-18.2zm18.2 12.3a18.1 18.1 0 01-18.3 12.3c-4.7 0-8.5-1-11.1-3.2-2.7-2-4-5-4-8.6 0-3.4 1.2-6 3.7-8 2.4-2 6.2-3 11.4-3h18.3v10.5zm-91-.8c1.6 4.5 4.3 8.1 8.2 10.8 3.8 2.7 8.3 4 13.2 4a23 23 0 0020.2-11.7c2-3.7 3.1-7.8 3.1-12.5 0-4.6-1-8.8-3-12.5A22.2 22.2 0 00276.8 33a21.8 21.8 0 00-21.4 15V33.3h-1.9v66h1.9V66.7zm2.8-21c1.8-3.5 4.4-6.1 7.7-8 3.2-2 6.9-3 10.9-3s7.7 1 11 3c3.2 1.9 5.8 4.5 7.7 8 1.8 3.4 2.7 7.3 2.7 11.6 0 4.4-.9 8.2-2.7 11.7a20 20 0 01-7.7 8c-3.3 1.8-7 2.8-11 2.8s-7.7-1-11-2.8a20 20 0 01-7.6-8 24.1 24.1 0 01-2.8-11.7c0-4.3.9-8.2 2.8-11.6z" fill="#000"/>
</svg>
