<svg fill="none" xmlns="http://www.w3.org/2000/svg" viewBox="0 0 43 43">
  <path fill-rule="evenodd" clip-rule="evenodd" d="M16.6 15.7c.7-2.4 2.9-4 5.3-4 2.5 0 4.7 1.7 5.4 4.1l1.7-2.2a8 8 0 00-7-4.4 8 8 0 00-7.2 4.3l1.8 2.2zM30.4 12l1.6-2A12.4 12.4 0 0012 9.6l1.6 2a10 10 0 018.4-4.6 10 10 0 018.5 4.8zm2.9-3.7l1.6-2A16.8 16.8 0 009 6l1.6 2c2.7-3.4 6.8-5.6 11.3-5.6 4.6 0 8.7 2.2 11.4 5.7zM25 16.4a3 3 0 01-3 3 3 3 0 01-3-3 3 3 0 013-3 3 3 0 013 3zM0 40a3 3 0 002.7 3h18.2c.1-1.6-2.3-2.6-4.9-3.6-2.7-1-5.5-2.2-5.5-4 0-3.6 6.8-7.1 10.5-9l1.5-.8c2.2-1.2-.8-3.7-2.5-5.1l-.2-.2c-.7-.2-1.3-.5-1.8-.8a6 6 0 00-1.1 1.2l-5.1 7.8-1.4-2a2 2 0 00-3.3 0L0 36.5V40zm43 0v-1.6l-2.9-4.3a1 1 0 00-1.7 0l-1.3 2-10.2-15.4a6 6 0 00-1.1-1.2 7.1 7.1 0 01-4.2 1c3 1.7 7.4 4.6 5.4 5.6l-1.1.6c-3.6 1.8-10.4 5.1-6.4 6 3.6.9 18.4 7.2 16.1 10.3h4.7a3 3 0 002.7-3z" fill="#000"/>
</svg>
