<svg fill="none" xmlns="http://www.w3.org/2000/svg" viewBox="0 0 256 84">
  <path d="M53.2 29.9c-3.7.3-6.4 1.3-8.3 3-2 1.6-3 4-3 7.1 0 3.6 1.4 6.3 4 8.1 3.1 2 6.8 2.9 10.6 2.7A27 27 0 0063 50c2-.5 3.6-1 4.8-1.9.8-.5 1.5-1 2-1.8.6-.6.9-1.5.9-2.6V27.7c0-4.1-1.3-7.1-4-9.1-3.1-2-6.8-3.1-10.5-3a27.7 27.7 0 00-9.5 1.7c-.8.4-1.6 1-2.1 1.6-.5.7-.7 1.5-.6 2.3 0 .7.1 1.4.5 2 .3.7.7 1.2 1.1 1.5 3-1.4 6.4-2.2 9.7-2.2a9 9 0 015.2 1.2c1.3.8 2 2.1 2 3.9v1.2l-9.4 1zm9.3 12.8c-.6.4-1.3.7-2.4 1-1.2.3-2.4.4-3.6.4-2.2 0-3.8-.4-4.7-1.1a3.6 3.6 0 01-1.5-3.2c0-1.3.5-2.3 1.4-3 1-.6 2.4-1 4.2-1.2l6.5-.6v7.8zm16.4-14.2c2.3 6.7 4.8 13.2 7.6 19.6.5.8 1.1 1.4 2 1.7 2 .6 4.2.6 6.3.1.7-.1 1.4-.4 2-.9l2.2-4.5c2.5-5.6 4.6-11.4 6.4-17.3l1.3-4.7c.4-1.3.6-2.3.6-3 0-1.2-.5-2.2-1.2-2.7a5 5 0 00-3-.9c-.6 0-1.4.1-2 .3-.7.1-1.3.3-1.9.7-1 4.3-2 8.6-3.3 12.8L92 42.5h-.2L90 37.3l-2-6-3.3-11.5c-.4-1.4-1-2.5-1.7-3-.9-.6-1.9-1-2.9-.9a6 6 0 00-4.5 2c.8 3.7 1.9 7.2 3.2 10.6zm43.4 1.4c-3.7.3-6.4 1.3-8.3 3-2 1.6-3 4-3 7.1 0 3.6 1.4 6.3 3.9 8.1 3.2 2 7 2.9 10.7 2.7a27 27 0 006.6-.7c2-.5 3.6-1 4.7-1.9 1-.5 1.6-1 2.1-1.8.6-.6.9-1.5.9-2.6V27.7c0-4.1-1.4-7.1-4-9.1a17.4 17.4 0 00-10.6-3 27.7 27.7 0 00-9.5 1.7c-.8.4-1.5 1-2 1.6-.5.7-.7 1.5-.7 2.3 0 .7.1 1.4.5 2 .3.7.7 1.2 1.2 1.5 3-1.4 6.3-2.2 9.6-2.2a9 9 0 015.3 1.2c1.2.8 1.9 2.1 1.9 3.9v1.2l-9.3 1zm9.3 12.8c-.6.4-1.3.7-2.4 1-1.2.3-2.4.4-3.6.4-2.2 0-3.8-.4-4.7-1.1-.5-.4-.9-.9-1.1-1.4-.3-.6-.4-1.2-.4-1.8 0-1.3.5-2.3 1.4-3 1-.6 2.4-1 4.2-1.2l6.5-.6v7.8zm19.8-1.9a13.1 13.1 0 0012.7 9c2.4 0 4.8-.6 7-1.8 2-1.3 3.8-3.1 5-5.3 1.1-2.3 1.8-4.8 1.8-7.6 0-3-.6-5.4-1.8-7.7a13.4 13.4 0 00-5-5.4c-2.2-1.3-4.6-1.9-7-1.8-2.9-.1-5.6.7-7.9 2.4-2.3 1.7-4 4-4.9 6.8v-9h-1v40.4h1v-20h.1zm1.7-12.8c1-2.2 2.6-3.8 4.5-5 2-1.2 4.1-1.8 6.5-1.8 2.4 0 4.6.6 6.5 1.9 1.9 1.1 3.4 2.7 4.6 4.9 1 2 1.6 4.4 1.6 7 0 2.8-.6 5-1.6 7.2a12 12 0 01-11.1 6.6c-2.4 0-4.6-.6-6.5-1.7a12 12 0 01-4.5-4.9 15.1 15.1 0 01-1.7-7.1c0-2.7.5-5 1.7-7.1zm41.4 5.8c-3.5 0-6 .7-7.7 2.2a7.3 7.3 0 00-2.3 5.7c0 2.4.8 4.4 2.6 6 1.8 1.4 4.2 2.2 7.4 2.2 2.6 0 4.8-.6 6.7-1.7 1.8-1.1 3.2-2.7 4.1-4.7v6.3h1.2V30.5c0-3.3-1-5.9-2.7-7.7-1.7-1.7-4.2-2.6-7.5-2.6a16 16 0 00-11.1 4.4l.8.8a15 15 0 0110.3-4.1c3 0 5.2.7 6.7 2.3 1.6 1.6 2.3 3.9 2.3 7v3.2h-10.8zm10.8 7.5a11 11 0 01-4.2 5.7c-2 1.3-4.3 2-6.6 1.8-2.8 0-5-.6-6.6-2a6.3 6.3 0 01-2.4-5.2 6 6 0 012.2-4.9c1.5-1.2 3.7-1.8 6.8-1.8h10.8v6.4zm17 6.7c2 1.2 4.5 1.9 7 1.9 2.7 0 5.4-.8 7.7-2.4 2.3-1.7 4-4 4.9-6.8v9h1.1V7.7H242v21.8c-1-2.7-2.7-5-5-6.7-2.2-1.6-5-2.5-7.7-2.5-2.4 0-4.8.6-7 1.8a13.5 13.5 0 00-5 5.4 15.3 15.3 0 00-1.8 7.5c0 2.9.6 5.4 1.8 7.8 1.2 2.2 2.9 4 5 5.2zM218 27.9a12 12 0 0111-6.6c2.4 0 4.6.6 6.6 1.7a12 12 0 014.5 4.9c1.1 2 1.6 4.5 1.6 7.1 0 2.7-.6 5-1.6 7.2a12.3 12.3 0 01-11.1 6.6 12.4 12.4 0 01-11-6.6 15.1 15.1 0 01-1.7-7.2c0-2.6.6-5 1.7-7.1z" fill="#000"/>
  <path d="M250.4 70.7l-1.3-.1h-1.6l-1.9-.2h-2.1l-24.7-.5-8-.1h-2l-2.1-.1h-4.3l-18.4-.2h-9.7l-5-.1-5-.1-5-.2c-1.7 0-3.3-.1-5-.3-1.7 0-3.4 0-5-.2H148l-1.3-.2-2.6-.2-5-.3-1.3-.2h-1.2l-2.6-.4-1.1-.1-1.3-.2-2.5-.4-5-.7-4.9-.9-4.9-.7-2.4-.5-2.4-.3-2.5-.4-2.3-.3-2.5-.4h-.6l-.6-.1-1.1-.1-2.4-.3h-1.1l-1.2-.2-4.8-.3h-8.9l-4.2.3-4 .2c-1.5 0-2.8.2-4 .3l-7.1.6c-2.2 0-4.7.4-6.6-.9-5.1-3.6-6.9-9.9-13.9-10.9l-14.2-1H27V18.8c0-1.6-.5-2.7-1.2-3.3-.7-.7-2-.9-3.6-.9-.7 0-1.5 0-2.3.2l-1.7.4v37.5a5 5 0 001.2 3.6 4.5 4.5 0 003.4 1.3l1.4-.2L28 57h4.9c1.6 0 3.4 0 5 .3 1.7.2 3.3.7 4.9 1.4 1 .5 2.2 1.5 3 2.4 4.5 6.2 7.9 7.5 9.1 7.8 2.5.6 5 .6 7.5.6l7.5-.9c1.3-.2 2.5-.4 3.8-.4l4-.4 4.1-.3 4.2-.2 4.4-.2c1.5 0 3 0 4.5.2H97l2.3.2h1.2l.6.1h.6l2.3.3 2.3.3 4.8.6 2.5.2 4.9.6 5 .7 5 .6 2.5.3h1.3l1.3.2 2.5.2 1.3.1h1.3l5.1.3 2.6.1h1.2l.6.1h5.8l5.1.1h10.1l5-.2 9.7-.2 18.4-.5c1.5 0 2.9 0 4.3-.2h4.2l8-.2 13.9-.2 10.6-.2h5.7l1.3.1 2.5.1-2.5-.2z" fill="#000"/>
</svg>
