<svg fill="none" xmlns="http://www.w3.org/2000/svg" viewBox="0 0 43 43">
  <g clip-path="url(#clip0)" fill="#000">
    <path fill-rule="evenodd" clip-rule="evenodd" d="M2.66 42.98A3 3 0 010 40v-3.55l7.1-9.97a2 2 0 013.26 0l1.42 2 5.1-7.74c.32-.5.7-.92 1.12-1.27.52.34 1.14.62 1.83.8l.2.19c1.7 1.42 4.69 3.93 2.47 5.14l-1.46.76c-3.75 1.92-10.54 5.4-10.54 8.96 0 1.92 2.82 3.03 5.53 4.1 2.56 1.02 5.01 2 4.9 3.56H2.65zM43 38.42V40a3 3 0 01-2.66 2.98H35.6c2.3-3.08-12.46-9.39-16.1-10.22-4.03-.91 2.77-4.3 6.39-6.1l1.11-.55c2.03-1.04-2.34-3.95-5.38-5.57h.27a7.1 7.1 0 003.89-1.07c.42.35.8.78 1.12 1.27l10.16 15.41 1.38-2.08a1 1 0 011.67 0L43 38.42zM16.6 15.73a5.6 5.6 0 015.32-4.07 5.6 5.6 0 015.34 4.17l1.79-2.27a8.03 8.03 0 00-7.13-4.4 8.03 8.03 0 00-7.09 4.32l1.78 2.25zm13.79-3.86L32 9.8a12.42 12.42 0 00-10.09-5.23c-4.11 0-7.76 2.03-10.04 5.16l1.62 2.05a9.97 9.97 0 018.42-4.71c3.53 0 6.68 1.9 8.47 4.79zm2.91-3.7l1.6-2.01A16.8 16.8 0 0021.91 0 16.8 16.8 0 009 6.1l1.59 2a14.35 14.35 0 0111.33-5.6c4.6 0 8.72 2.2 11.38 5.67z"/>
    <ellipse cx="22" cy="16.38" rx="3" ry="3.07"/>
  </g>
  <defs>
    <clipPath id="clip0">
      <rect width="43" height="43" rx="3" fill="#fff"/>
    </clipPath>
  </defs>
</svg>
