<svg fill="none" xmlns="http://www.w3.org/2000/svg" viewBox="0 0 46 46">
  <g clip-path="url(#clip0)">
    <path fill="#fff" d="M0 0h46v46H0z"/>
    <path d="M45 23a22 22 0 11-44 0 22 22 0 0144 0z" fill="#C4C4C4" fill-opacity=".4"/>
    <path fill-rule="evenodd" clip-rule="evenodd" d="M6 36.9l2.1-3a2 2 0 013.2 0l1.5 2 5.1-7.7a6 6 0 011-1.2c.6.3 1.2.6 2 .8l.1.2c1.7 1.4 4.7 3.8 2.5 5l-1.5.8c-3.5 1.7-9.6 4.8-10.4 8-2.2-1.3-4-3-5.7-5zm24.1 7a53.5 53.5 0 00-9.6-3.9c-4-.9 2.8-4.2 6.4-6l1.1-.5c2-1-2.3-3.8-5.4-5.4h.3c1.5 0 2.9-.4 3.9-1.1.4.3.8.7 1 1.2l8.4 12.4a22 22 0 01-6.1 3.2zm-7.2-26.5a5.6 5.6 0 00-5.3 4l-1.8-2.2a8 8 0 0114.2 0l-1.7 2.3c-.7-2.4-2.8-4-5.4-4zM33 15.6l-1.6 2a10 10 0 00-16.9 0l-1.6-2a12.5 12.5 0 0120.1 0zM36 12l-1.6 2a14.5 14.5 0 00-22.7 0L10 12a17 17 0 0125.9 0zM23 26a3 3 0 100-6 3 3 0 000 6z" fill="#000"/>
  </g>
  <defs>
    <clipPath id="clip0">
      <path fill="#fff" d="M0 0h46v46H0z"/>
    </clipPath>
  </defs>
</svg>
