<svg fill="none" xmlns="http://www.w3.org/2000/svg" viewBox="0 0 50 43">
  <g clip-path="url(#clip0)">
    <path fill="#fff" d="M0 0h50v43H0z"/>
    <circle cx="26" cy="17" r="3" fill="#000"/>
    <path fill-rule="evenodd" clip-rule="evenodd" d="M20.6 15.4a5.6 5.6 0 0110.7 0l1.7-2.2a8 8 0 00-14.2 0l1.8 2.2zm13.8-3.8l1.6-2a12.5 12.5 0 00-20.1 0l1.6 2a10 10 0 0116.9 0zM37.3 8l1.6-2A17 17 0 0013 6l1.6 2a14.5 14.5 0 0122.7 0zM24 22c1.7 1.4 4.7 3.8 2.5 5l-1.5.8c-3.7 1.8-10.5 5.2-10.5 8.7 0 1.9 2.8 3 5.5 4 2.6 1 5 2 5 3.5H0c0-.5 0-1 .4-1.4L11 27.8a2 2 0 013.2 0l1.5 2 5.1-7.6a6 6 0 011-1.2c.6.3 1.2.6 2 .8l.1.2zm1.6 0c3 1.7 7.4 4.5 5.4 5.5l-1.1.6c-3.6 1.7-10.4 5-6.4 6 3.6.7 18.4 6.9 16.1 9.9H50l-5.9-8.7a1 1 0 00-1.6 0l-1.4 2-10.2-15.1a6 6 0 00-1.1-1.2 7.2 7.2 0 01-4.2 1z" fill="#000"/>
  </g>
  <defs>
    <clipPath id="clip0">
      <path fill="#fff" d="M0 0h50v43H0z"/>
    </clipPath>
  </defs>
</svg>
